HIERARCHY
ROOT Hips
{
	OFFSET 0.000000 0.000000 0.000000
	CHANNELS 6 Xposition Yposition Zposition Xrotation Yrotation Zrotation
	JOINT LeftUpLeg_virtual
	{
		OFFSET 0.000000 0.000000 0.000000
		CHANNELS 3 Xrotation Yrotation Zrotation
		JOINT LeftUpLeg
		{
			OFFSET 13.026900 -6.336304 -1.092800
			CHANNELS 3 Xrotation Yrotation Zrotation
			JOINT LeftLeg
			{
				OFFSET 0.524474 -46.096886 9.782700
				CHANNELS 3 Xrotation Yrotation Zrotation
				JOINT LeftFoot
				{
					OFFSET -0.524474 -53.427422 -12.948200
					CHANNELS 3 Xrotation Yrotation Zrotation
					JOINT LeftToeBase
					{
						OFFSET 0.192200 -14.009700 16.364100
						CHANNELS 3 Xrotation Yrotation Zrotation
						JOINT LeftToe_End
						{
							OFFSET -1.784700 -0.561700 9.474800
							CHANNELS 3 Xrotation Yrotation Zrotation
							End Site
							{
								OFFSET 0 0 0
							}
						}
					}
				}
			}
		}
	}
	JOINT RightUpLeg_virtual
	{
		OFFSET 0.000000 0.000000 0.000000
		CHANNELS 3 Xrotation Yrotation Zrotation
		JOINT RightUpLeg
		{
			OFFSET -12.883000 -6.336304 -1.092800
			CHANNELS 3 Xrotation Yrotation Zrotation
			JOINT RightLeg
			{
				OFFSET -0.524587 -46.096825 9.782800
				CHANNELS 3 Xrotation Yrotation Zrotation
				JOINT RightFoot
				{
					OFFSET 0.524587 -53.427383 -12.948300
					CHANNELS 3 Xrotation Yrotation Zrotation
					JOINT RightToeBase
					{
						OFFSET -0.192200 -14.009700 16.364100
						CHANNELS 3 Xrotation Yrotation Zrotation
						JOINT RightToe_End
						{
							OFFSET 1.784700 -0.561700 9.474800
							CHANNELS 3 Xrotation Yrotation Zrotation
							End Site
							{
								OFFSET 0 0 0
							}
						}
					}
				}
			}
		}
	}
	JOINT Spine_virtual
	{
		OFFSET 0.000000 0.000000 0.000000
		CHANNELS 3 Xrotation Yrotation Zrotation
		JOINT Spine
		{
			OFFSET 0.072000 7.257294 -0.789700
			CHANNELS 3 Xrotation Yrotation Zrotation
			JOINT Spine1
			{
				OFFSET 0.000000 12.508769 -0.658067
				CHANNELS 3 Xrotation Yrotation Zrotation
				JOINT Spine1_split
				{
					OFFSET 0.000000 12.508769 -0.658067
					CHANNELS 3 Xrotation Yrotation Zrotation
					JOINT Spine2
					{
						OFFSET 0.000000 12.508769 -0.658067
						CHANNELS 3 Xrotation Yrotation Zrotation
						JOINT Neck_virtual
						{
							OFFSET 0.000000 0.000000 0.000000
							CHANNELS 3 Xrotation Yrotation Zrotation
							JOINT Neck
							{
								OFFSET 0.000000 14.033295 7.520400
								CHANNELS 3 Xrotation Yrotation Zrotation
								JOINT Head
								{
									OFFSET 0.000000 8.198502 5.703100
									CHANNELS 3 Xrotation Yrotation Zrotation
									JOINT HeadTop_End
									{
										OFFSET 0.000000 17.760803 13.332701
										CHANNELS 3 Xrotation Yrotation Zrotation
										End Site
										{
											OFFSET 0 0 0
										}
									}
								}
							}
						}
						JOINT LeftShoulder_virtual
						{
							OFFSET 0.000000 0.000000 0.000000
							CHANNELS 3 Xrotation Yrotation Zrotation
							JOINT LeftShoulder
							{
								OFFSET 6.292450 5.785301 -0.669000
								CHANNELS 3 Xrotation Yrotation Zrotation
								JOINT LeftShoulder_split
								{
									OFFSET 6.292450 5.785301 -0.669000
									CHANNELS 3 Xrotation Yrotation Zrotation
									JOINT LeftArm
									{
										OFFSET 13.907140 -6.093903 1.965100
										CHANNELS 3 Xrotation Yrotation Zrotation
										JOINT LeftForeArm
										{
											OFFSET 34.140198 0.000000 0.000000
											CHANNELS 3 Xrotation Yrotation Zrotation
											JOINT LeftHand
											{
												OFFSET 40.960209 0.000000 0.000000
												CHANNELS 3 Xrotation Yrotation Zrotation
												End Site
												{
													OFFSET 0 0 0
												}
											}
										}
									}
								}
							}
						}
						JOINT RightShoulder_virtual
						{
							OFFSET 0.000000 0.000000 0.000000
							CHANNELS 3 Xrotation Yrotation Zrotation
							JOINT RightShoulder
							{
								OFFSET -6.292450 5.785301 -0.669000
								CHANNELS 3 Xrotation Yrotation Zrotation
								JOINT RightShoulder_split
								{
									OFFSET -6.292450 5.785301 -0.669000
									CHANNELS 3 Xrotation Yrotation Zrotation
									JOINT RightArm
									{
										OFFSET -13.907140 -6.093903 1.965100
										CHANNELS 3 Xrotation Yrotation Zrotation
										JOINT RightForeArm
										{
											OFFSET -34.140198 0.000000 0.000000
											CHANNELS 3 Xrotation Yrotation Zrotation
											JOINT RightHand
											{
												OFFSET -40.960209 0.000000 0.000000
												CHANNELS 3 Xrotation Yrotation Zrotation
												End Site
												{
													OFFSET 0 0 0
												}
											}
										}
									}
								}
							}
						}
					}
				}
			}
		}
	}
}
MOTION
Frames: 11
Frame Time: 0.03333333
5.646872 12.383484 16.216553 0.000000 0.000000 0.000000 81.717012 3.184666 -1.997823 9.129820 10.200920 17.300965 16.434069 24.289510 4.359483 29.332872 28.309683 -10.874500 -1.411948 1.395084 7.609973 0.000000 0.000000 0.000000 83.819890 -1.268434 -0.776776 1.322953 -7.681816 -20.844303 1.747860 -9.633735 0.976459 37.657442 -19.085763 20.552507 6.192319 -0.615942 -4.458459 0.000000 0.000000 0.000000 87.251664 -0.717165 0.628609 2.321050 0.268885 -1.517601 0.888845 0.519010 -0.057588 0.380104 -1.026834 0.631366 0.000000 0.000000 0.000000 -0.645805 0.312403 -0.334399 -4.354027 -12.209717 5.481907 -18.650603 -56.021874 -19.859962 0.000000 0.000000 0.000000 0.672646 0.264223 -0.343853 3.460098 -17.221152 -3.005986 -1.307172 -0.586815 -1.413543 22.654605 -20.024443 -56.598462 0.149463 -24.726692 -0.969249 0.000000 0.000000 0.000000 0.351650 0.752794 0.199241 -0.338196 12.556881 11.716786 7.919948 6.562870 -2.728536 6.788324 -10.162976 55.464128 0.512451 28.074540 1.071407 0.000000 0.000000 0.000000 
5.647485 12.380898 16.216389 0.000000 0.000000 0.000000 81.718986 3.181886 -1.996369 9.130542 10.198348 17.299701 16.443737 24.290562 4.353977 29.338319 28.321021 -10.864819 -1.414208 1.396522 7.608984 0.000000 0.000000 0.000000 83.818504 -1.265575 -0.780946 1.317708 -7.680118 -20.844011 1.758334 -9.630218 0.972971 37.649840 -19.077698 20.563186 6.191677 -0.614439 -4.463436 0.000000 0.000000 0.000000 87.249547 -0.719101 0.634605 2.319319 0.268197 -1.514602 0.891719 0.517473 -0.055987 0.369780 -1.025370 0.626808 0.000000 0.000000 0.000000 -0.641570 0.312734 -0.334676 -4.356715 -12.200202 5.475907 -18.647892 -56.008463 -19.863708 0.000000 0.000000 0.000000 0.681006 0.262494 -0.342870 3.464529 -17.240012 -2.991897 -1.310916 -0.561894 -1.418366 22.660770 -20.023174 -56.597126 0.152423 -24.695802 -0.962648 0.000000 0.000000 0.000000 0.353797 0.751608 0.201280 -0.340021 12.554298 11.709683 7.927198 6.587783 -2.734241 6.769765 -10.141790 55.451540 0.527231 28.106590 1.062409 0.000000 0.000000 0.000000 
5.645871 12.378754 16.212215 0.000000 0.000000 0.000000 81.719341 3.180012 -1.999620 9.121815 10.206354 17.304812 16.459117 24.293012 4.350528 29.356706 28.329545 -10.863994 -1.420106 1.398342 7.605562 0.000000 0.000000 0.000000 83.817670 -1.268604 -0.784136 1.315414 -7.663984 -20.839054 1.772598 -9.630295 0.966771 37.641555 -19.070672 20.579384 6.214404 -0.613822 -4.455477 0.000000 0.000000 0.000000 87.250558 -0.722857 0.642920 2.317151 0.270071 -1.506002 0.896879 0.515862 -0.054554 0.361453 -1.028153 0.623731 0.000000 0.000000 0.000000 -0.637776 0.311533 -0.333367 -4.356681 -12.183329 5.465985 -18.622118 -56.003678 -19.862602 0.000000 0.000000 0.000000 0.690025 0.260223 -0.344238 3.469128 -17.282069 -2.984729 -1.317850 -0.549262 -1.424443 22.682013 -20.025194 -56.579388 0.137045 -24.645119 -0.969574 0.000000 0.000000 0.000000 0.359190 0.750202 0.202075 -0.340904 12.555500 11.703539 7.945150 6.612926 -2.745677 6.738586 -10.151711 55.451290 0.552584 28.119365 1.050455 0.000000 0.000000 0.000000 
5.642363 12.377960 16.205544 0.000000 0.000000 0.000000 81.719354 3.179633 -2.008606 9.100873 10.227052 17.317299 16.477138 24.295470 4.347751 29.383624 28.331367 -10.872869 -1.427716 1.400140 7.601329 0.000000 0.000000 0.000000 83.818449 -1.273301 -0.789795 1.312979 -7.635466 -20.831283 1.793552 -9.632456 0.958709 37.634838 -19.063632 20.603390 6.257415 -0.613594 -4.437512 0.000000 0.000000 0.000000 87.254219 -0.729598 0.650011 2.316300 0.274029 -1.492751 0.903520 0.514958 -0.053519 0.362692 -1.041277 0.629004 0.000000 0.000000 0.000000 -0.635176 0.309373 -0.331163 -4.353967 -12.163673 5.456396 -18.580063 -56.007326 -19.857529 0.000000 0.000000 0.000000 0.697804 0.257946 -0.347689 3.474408 -17.345665 -2.981624 -1.321341 -0.544747 -1.436831 22.716931 -20.018999 -56.543810 0.109985 -24.606962 -0.987358 0.000000 0.000000 0.000000 0.366252 0.749339 0.201518 -0.341864 12.557655 11.701349 7.972012 6.638160 -2.756993 6.696711 -10.201786 55.457711 0.583010 28.100896 1.036501 0.000000 0.000000 0.000000 
5.637451 12.378853 16.195992 0.000000 0.000000 0.000000 81.717865 3.183330 -2.022795 9.067329 10.255713 17.335071 16.497463 24.298234 4.344125 29.411426 28.326840 -10.889334 -1.437050 1.401621 7.597620 0.000000 0.000000 0.000000 83.820150 -1.272393 -0.801721 1.305461 -7.601196 -20.825730 1.823328 -9.633321 0.950375 37.633673 -19.049626 20.642447 6.306262 -0.612599 -4.413711 0.000000 0.000000 0.000000 87.260940 -0.737471 0.653621 2.318676 0.279289 -1.476123 0.911338 0.514970 -0.053810 0.368500 -1.058555 0.634867 0.000000 0.000000 0.000000 -0.634156 0.306782 -0.328944 -4.350912 -12.145047 5.450122 -18.536191 -56.016919 -19.853782 0.000000 0.000000 0.000000 0.702881 0.255905 -0.351818 3.481298 -17.427405 -2.976999 -1.312583 -0.534979 -1.448076 22.756584 -20.005107 -56.493970 0.082470 -24.592344 -1.008815 0.000000 0.000000 0.000000 0.373875 0.748585 0.198463 -0.341810 12.555840 11.702093 7.994119 6.652145 -2.774180 6.650821 -10.283059 55.459927 0.613506 28.063444 1.022455 0.000000 0.000000 0.000000 
5.630129 12.379303 16.179913 0.000000 0.000000 0.000000 81.717640 3.195639 -2.042391 9.025402 10.285440 17.354578 16.518669 24.302515 4.338972 29.428188 28.319158 -10.909087 -1.449634 1.402577 7.595572 0.000000 0.000000 0.000000 83.822568 -1.262795 -0.818156 1.288062 -7.568643 -20.826365 1.862902 -9.629875 0.942656 37.640992 -19.025046 20.699308 6.345460 -0.609821 -4.388453 0.000000 0.000000 0.000000 87.268487 -0.739590 0.649548 2.325021 0.284265 -1.458408 0.918723 0.515122 -0.056248 0.375202 -1.078490 0.638478 0.000000 0.000000 0.000000 -0.634303 0.303751 -0.327592 -4.351391 -12.131942 5.448075 -18.497406 -56.032594 -19.852686 0.000000 0.000000 0.000000 0.704931 0.254816 -0.355455 3.490625 -17.523291 -2.968603 -1.288325 -0.516523 -1.456339 22.797553 -19.993900 -56.430698 0.065089 -24.602703 -1.025201 0.000000 0.000000 0.000000 0.381817 0.747406 0.192827 -0.339490 12.547928 11.706786 8.018822 6.653226 -2.796682 6.603319 -10.381993 55.449542 0.639699 28.020603 1.009887 0.000000 0.000000 0.000000 
5.620387 12.378174 16.157196 0.000000 0.000000 0.000000 81.720276 3.221334 -2.068456 8.981856 10.310603 17.367989 16.540223 24.310066 4.332035 29.428095 28.312065 -10.931218 -1.470844 1.402866 7.595088 0.000000 0.000000 0.000000 83.823087 -1.242625 -0.837503 1.259221 -7.545436 -20.835309 1.908565 -9.621226 0.935515 37.652080 -18.992253 20.770933 6.372236 -0.605292 -4.364363 0.000000 0.000000 0.000000 87.275310 -0.731721 0.637063 2.336014 0.288243 -1.441804 0.923834 0.515644 -0.060327 0.379514 -1.091494 0.640789 0.000000 0.000000 0.000000 -0.635395 0.301041 -0.328049 -4.358434 -12.125148 5.449911 -18.462995 -56.049038 -19.853106 0.000000 0.000000 0.000000 0.706687 0.254629 -0.357818 3.502147 -17.623174 -2.954170 -1.262202 -0.493388 -1.463020 22.836044 -19.997421 -56.360190 0.065206 -24.628588 -1.028240 0.000000 0.000000 0.000000 0.389536 0.746399 0.184841 -0.335803 12.538385 11.710231 8.055501 6.643247 -2.818402 6.554720 -10.480616 55.430124 0.659935 27.986024 0.999203 0.000000 0.000000 0.000000 
5.610137 12.372543 16.134914 0.000000 0.000000 0.000000 81.727564 3.259231 -2.096546 8.936955 10.326823 17.373729 16.566129 24.322271 4.322616 29.421730 28.309483 -10.959790 -1.504380 1.402547 7.594722 0.000000 0.000000 0.000000 83.822151 -1.210425 -0.858776 1.219835 -7.537038 -20.852660 1.959624 -9.610263 0.929658 37.658125 -18.959710 20.845369 6.392178 -0.599428 -4.341655 0.000000 0.000000 0.000000 87.281696 -0.709577 0.617576 2.351215 0.290679 -1.427512 0.927444 0.517305 -0.065485 0.375133 -1.095269 0.634718 0.000000 0.000000 0.000000 -0.638398 0.299412 -0.330861 -4.373889 -12.124974 5.451919 -18.430815 -56.063784 -19.852206 0.000000 0.000000 0.000000 0.710684 0.255258 -0.359072 3.515020 -17.723031 -2.936530 -1.233772 -0.475096 -1.464973 22.863334 -20.025133 -56.296700 0.081691 -24.646476 -1.014491 0.000000 0.000000 0.000000 0.397827 0.746550 0.175445 -0.330600 12.537043 11.712178 8.100814 6.622779 -2.843153 6.509151 -10.562442 55.412748 0.674266 27.955556 0.991932 0.000000 0.000000 0.000000 
5.601268 12.361145 16.115726 0.000000 0.000000 0.000000 81.741757 3.305850 -2.124555 8.889566 10.336804 17.373235 16.599532 24.342183 4.310829 29.421422 28.315224 -10.995354 -1.542844 1.402302 7.590703 0.000000 0.000000 0.000000 83.819979 -1.169017 -0.881655 1.175922 -7.539352 -20.877303 2.017786 -9.603265 0.925341 37.651705 -18.940219 20.907294 6.415311 -0.593216 -4.319301 0.000000 0.000000 0.000000 87.287482 -0.676518 0.595154 2.369072 0.290614 -1.417007 0.928183 0.520279 -0.071356 0.364425 -1.088173 0.633666 0.000000 0.000000 0.000000 -0.641357 0.299653 -0.336210 -4.391812 -12.132196 5.451440 -18.395269 -56.078298 -19.849462 0.000000 0.000000 0.000000 0.720489 0.256153 -0.360360 3.528154 -17.819938 -2.923833 -1.205717 -0.472218 -1.459001 22.868151 -20.057021 -56.259384 0.106356 -24.643234 -0.987325 0.000000 0.000000 0.000000 0.405433 0.749559 0.167134 -0.326150 12.549298 11.712008 8.168818 6.621817 -2.855679 6.459121 -10.629640 55.399692 0.674760 27.908329 0.989813 0.000000 0.000000 0.000000 
5.592628 12.345970 16.101864 0.000000 0.000000 0.000000 81.761565 3.353424 -2.148575 8.836511 10.343548 17.369979 16.642866 24.371500 4.297374 29.438040 28.331094 -11.039139 -1.576743 1.403395 7.580121 0.000000 0.000000 0.000000 83.817957 -1.121139 -0.906717 1.132869 -7.546131 -20.907216 2.082050 -9.602514 0.922845 37.631576 -18.939403 20.951271 6.447732 -0.587805 -4.296401 0.000000 0.000000 0.000000 87.293875 -0.637880 0.572955 2.386356 0.288836 -1.409575 0.926958 0.525664 -0.077087 0.353095 -1.069342 0.633651 0.000000 0.000000 0.000000 -0.643964 0.303066 -0.343872 -4.403695 -12.147129 5.446197 -18.354761 -56.094308 -19.847606 0.000000 0.000000 0.000000 0.735442 0.257930 -0.362085 3.540318 -17.914999 -2.920707 -1.190057 -0.485686 -1.449214 22.838500 -20.071631 -56.265746 0.124555 -24.605681 -0.957558 0.000000 0.000000 0.000000 0.412171 0.756127 0.159911 -0.326045 12.576907 11.711484 8.250285 6.644076 -2.860363 6.403928 -10.698603 55.388569 0.655605 27.839668 0.995496 0.000000 0.000000 0.000000 
5.581923 12.329048 16.099026 0.000000 0.000000 0.000000 81.784323 3.393610 -2.165688 8.776277 10.349388 17.368637 16.697149 24.406788 4.283283 29.474312 28.356239 -11.088550 -1.601942 1.406072 7.563979 0.000000 0.000000 0.000000 83.819439 -1.071214 -0.933940 1.094833 -7.548615 -20.938959 2.148038 -9.606043 0.922319 37.605922 -18.950515 20.984334 6.485343 -0.583660 -4.274015 0.000000 0.000000 0.000000 87.301518 -0.601095 0.556376 2.399904 0.285830 -1.405078 0.923905 0.531964 -0.081940 0.345952 -1.055104 0.629502 0.000000 0.000000 0.000000 -0.645341 0.308925 -0.353202 -4.399460 -12.167073 5.431331 -18.315753 -56.115731 -19.850838 0.000000 0.000000 0.000000 0.752165 0.260868 -0.364492 3.553664 -18.015374 -2.926040 -1.193368 -0.511756 -1.441167 22.769808 -20.038078 -56.321771 0.124056 -24.525039 -0.938003 0.000000 0.000000 0.000000 0.417980 0.764522 0.155582 -0.330740 12.607431 11.713069 8.331423 6.680386 -2.852293 6.347697 -10.791713 55.371381 0.615266 27.768202 1.005827 0.000000 0.000000 0.000000 
